<svg xmlns="http://www.w3.org/2000/svg" width="279" height="31.499" viewBox="0 0 279 31.499"><path d="M0 .522h12.856c3.151 0 5.371.957 6.84 2.741 1.002 1.218 1.61 2.828 1.61 5.003 0 3.524-1.646 5.613-3.867 6.787 3.044 1.218 4.978 3.307 4.978 7.527 0 5.221-3.509 8.396-9.489 8.396H0V.522zm11.137 12.139c2.113 0 3.295-.87 3.295-2.741 0-1.653-1.074-2.61-3.151-2.61H6.769v5.351h4.368zM12.14 24.19c2.113 0 3.33-1.001 3.33-2.871 0-1.654-1.074-2.741-3.401-2.741h-5.3v5.612h5.371zM25.605.522h20.16V7.7H32.48v4.612h12.032v6.657H32.48v4.829h13.465v7.179h-20.34V.522zm23.885 0h11.854c3.831 0 6.481 1.218 8.164 3.263 1.468 1.784 2.221 4.133 2.221 7.223 0 4.655-2.041 7.744-5.156 9.354l5.98 10.615h-8.021l-5.05-9.224h-3.044v9.224H49.49V.522zm11.531 14.619c2.363 0 3.724-1.392 3.724-3.698 0-2.393-1.432-3.611-3.759-3.611h-4.549v7.309h4.584zM75.239.522h20.16V7.7H82.114v4.612h12.032v6.657H82.114v4.829h13.464v7.179H75.239V.522zm23.098 24.321l12.568-17.185H98.767V.522h21.735v6.134l-12.568 17.186h12.568v7.135H98.337v-6.134zM124.12.522h6.947v12.356l8.63-12.356h8.236l-9.489 13.096 9.812 17.359h-8.344l-6.303-11.312-2.542 3.438v7.875h-6.947V.522z"/><path d="M158.212.305h6.696l10.671 30.673h-7.448l-1.826-5.438h-9.668l-1.791 5.438h-7.305L158.212.305zm6.087 18.665l-2.793-8.658-2.828 8.658h5.621zm13.037 7.57l2.649-3.829c2.399 2.523 4.798 3.959 7.914 3.959 2.721 0 4.44-1.522 4.44-3.915 0-2.176-1.003-3.35-5.658-4.699-5.336-1.522-8.344-3.437-8.344-9.136 0-5.221 3.581-8.833 8.559-8.833 3.652 0 6.553 1.349 9.096 3.829l-2.363 4.046c-2.256-2.045-4.512-3.132-6.804-3.132-2.578 0-4.083 1.61-4.083 3.698 0 2.35 1.146 3.394 5.944 4.786 5.3 1.566 8.058 3.872 8.058 9.006 0 5.699-3.688 9.094-8.952 9.094-3.832-.001-7.448-1.611-10.456-4.874zM201.938.522h4.404v12.661h11.96V.522h4.404v30.455h-4.404V18.143h-11.96v12.835h-4.404V.522zm26.105 15.228c0-8.571 5.443-15.75 13.143-15.75s13.07 7.092 13.07 15.75c0 8.571-5.443 15.749-13.143 15.749-7.698 0-13.07-7.092-13.07-15.749zm21.593 0c0-5.917-3.545-10.833-8.522-10.833s-8.45 4.829-8.45 10.833c0 5.917 3.545 10.833 8.522 10.833 4.976 0 8.45-4.829 8.45-10.833zM259.592.522h9.884C275.313.522 279 4.568 279 10.79c0 6.83-4.511 10.398-10.025 10.398h-4.978v9.789h-4.405V.522zm9.525 15.837c3.331 0 5.407-2.262 5.407-5.525 0-3.567-2.112-5.438-5.407-5.438h-5.12V16.36h5.12z"/></svg>